<svg xmlns="http://www.w3.org/2000/svg" width="30" height="30" fill="currentColor" class="bi bi-globe" viewBox="0 0 16 16">
  <path d="M8 0a8 8 0 1 0 0 16A8 8 0 0 0 8 0zM7.461 1.317c.196-.01.395-.017.599-.017.204 0 .403.007.599.017l.14.01c-.314.413-.614.964-.898 1.643-.515 1.208-.968 2.681-1.1 4.243H3.751a6.997 6.997 0 0 1 3.71-5.896zM5.05 8.5h3.9c-.1 1.402-.522 2.633-1.02 3.623-.272.533-.546.977-.805 1.312-.26-.335-.533-.779-.805-1.312-.498-.99-.92-2.221-1.02-3.623zm2.625 5.96c.175.398.341.728.475.965-.51-.038-1.004-.14-1.47-.296.197-.26.415-.598.63-.995.115-.213.229-.437.365-.684zm1.65 0c.135.247.25.471.365.684.215.397.433.735.63.995a6.964 6.964 0 0 1-1.47.296c.134-.237.3-.567.475-.965zM3.601 8.5h3.9c.1-1.402.522-2.633 1.02-3.623.272-.533.546-.977.805-1.312.26.335.533.779.805 1.312.498.99.92 2.221 1.02 3.623h3.9a6.96 6.96 0 0 1-.785 3.417c-.131-.248-.26-.47-.386-.666-.604-1.008-1.246-1.75-1.682-2.19.202-.271.385-.594.543-.947.215-.497.388-1.062.495-1.707H8.5c-.107.645-.28 1.21-.495 1.707-.158.353-.341.676-.543.947.436.44 1.078 1.182 1.682 2.19.125.196.255.418.386.666A6.964 6.964 0 0 1 8 15.193a6.964 6.964 0 0 1-2.942-.628c.131-.248.26-.47.386-.666.604-1.008 1.246-1.75 1.682-2.19-.202-.271-.385-.594-.543-.947A6.953 6.953 0 0 1 5.07 8.5zM8 15.193a6.964 6.964 0 0 1-2.942-.628c.131-.248.26-.47.386-.666.604-1.008 1.246-1.75 1.682-2.19-.202-.271-.385-.594-.543-.947A6.953 6.953 0 0 1 5.07 8.5H2.859c.107.645.28 1.21.495 1.707.158.353.341.676.543.947.436.44 1.078 1.182 1.682 2.19.125.196.255.418.386.666A6.964 6.964 0 0 1 8 15.193zm-1.75-1.95c-.196.397-.415.735-.63.995.466.156.96.258 1.47.296-.134-.237-.3-.567-.475-.965-.135-.247-.25-.471-.365-.684zM1.318 8a6.96 6.96 0 0 1 5.896-3.71c-.004.197-.01.395-.01.599 0 .204.007.403.017.599a7.049 7.049 0 0 0-.003 3.461 7.049 7.049 0 0 0 .003 3.461c-.01.196-.017.395-.017.599 0 .204.007.403.017.599A6.96 6.96 0 0 1 1.318 8z"/>
</svg>
