<svg xmlns="http://www.w3.org/2000/svg" width="20" height="20" fill="currentColor" class="bi bi-instagram" viewBox="0 0 16 16">
  <path d="M8 0C5.736 0 5.466.01 4.663.047 3.865.084 3.27.215 2.768.413A4.004 4.004 0 0 0 .413 2.768c-.198.502-.329 1.097-.366 1.895C0 5.466.01 5.736.047 6.539c.037.802.168 1.397.366 1.9.23.636.547 1.197 1.033 1.683.486.486 1.047.803 1.683 1.033.503.198 1.098.329 1.9.366.803.037 1.073.047 2.876.047s2.073-.01 2.876-.047c.802-.037 1.397-.168 1.9-.366a4.004 4.004 0 0 0 2.355-2.355c.198-.502.329-1.097.366-1.9.037-.803.047-1.073.047-2.876s-.01-2.073-.047-2.876c-.037-.802-.168-1.397-.366-1.9a4.004 4.004 0 0 0-2.355-2.355c-.502-.198-1.097-.329-1.9-.366C10.534.01 10.264 0 8 0zm0 1.62c2.198 0 2.464.01 3.325.048.78.037 1.23.17 1.516.28a2.404 2.404 0 0 1 1.35 1.35c.11.286.243.736.28 1.516.037.86.048 1.127.048 3.325s-.01 2.464-.048 3.325c-.037.78-.17 1.23-.28 1.516a2.404 2.404 0 0 1-1.35 1.35c-.286.11-.736.243-1.516.28-.86.037-1.127.048-3.325.048s-2.464-.01-3.325-.048c-.78-.037-1.23-.17-1.516-.28a2.404 2.404 0 0 1-1.35-1.35c-.11-.286-.243-.736-.28-1.516-.037-.86-.048-1.127-.048-3.325s.01-2.464.048-3.325c.037-.78.17-1.23.28-1.516a2.404 2.404 0 0 1 1.35-1.35c.286-.11.736-.243 1.516-.28.86-.037 1.127-.048 3.325-.048zM8 3.977a4.024 4.024 0 1 0 0 8.048 4.024 4.024 0 0 0 0-8.048zm0 1.633a2.391 2.391 0 1 1 0 4.782 2.391 2.391 0 0 1 0-4.782zm3.961-.814a.906.906 0 1 0 0 1.812.906.906 0 0 0 0-1.812z"/>
</svg>
