<svg xmlns="http://www.w3.org/2000/svg" width="20" height="20" fill="currentColor" class="bi bi-telephone" viewBox="0 0 16 16">
  <path d="M3.654 1.328a.678.678 0 0 1 .58-.326h2.599c.225 0 .434.106.562.283l1.28 1.816a.678.678 0 0 1-.147.915L6.268 5.677a.678.678 0 0 0-.194.569c.197 1.117.748 2.151 1.516 2.92a8.468 8.468 0 0 0 2.918 1.516.678.678 0 0 0 .569-.194l1.66-1.662a.678.678 0 0 1 .916-.146l1.814 1.278c.178.13.284.338.283.564v2.595a.678.678 0 0 1-.326.58l-1.482.986c-.743.497-1.586.852-2.486 1.03-.827.159-1.682.228-2.528.204A15.978 15.978 0 0 1 2.29 14.71a16.08 16.08 0 0 1-2.002-3.409A15.978 15.978 0 0 1 .11 7.257c-.024-.846.045-1.702.204-2.528.178-.9.533-1.743 1.03-2.486L2.33 1.654z"/>
</svg>
