<svg xmlns="http://www.w3.org/2000/svg" width="30" height="30" fill="currentColor" class="bi bi-star" viewBox="0 0 15 15">
  <path d="M2.866 14.85c-.078.444.36.791.732.593l.088-.049L8 13.187l4.314 2.207.088.049c.37.198.81-.149.732-.592l-.02-.105-1.27-5.373 3.908-3.356.072-.082c.334-.39.16-.986-.283-1.14l-.094-.029-5.364-.455-2.148-5.02c-.147-.345-.615-.345-.762 0L5.572 4.364 2.208 4.82l-.094.03c-.442.153-.617.75-.283 1.14l.072.082 3.908 3.355-1.27 5.373-.02.105zM8 12.226l-3.657 1.87 1.028-4.356-.516-.443-3.32-2.854 4.406-.375L8 2.223l1.058 2.545 4.406.375-3.32 2.854-.516.443 1.028 4.356L8 12.226z"/>
</svg>
